<?xml version="1.0" encoding="utf-8"?>
<!-- Generator: Adobe Illustrator 15.1.0, SVG Export Plug-In . SVG Version: 6.00 Build 0)  -->
<!DOCTYPE svg PUBLIC "-//W3C//DTD SVG 1.1//EN" "http://www.w3.org/Graphics/SVG/1.1/DTD/svg11.dtd">
<svg version="1.1" id="Layer_1" xmlns="http://www.w3.org/2000/svg" xmlns:xlink="http://www.w3.org/1999/xlink" x="0px" y="0px"
	 width="246.766px" height="246.765px" viewBox="182.617 272.618 246.766 246.765"
	 enable-background="new 182.617 272.618 246.766 246.765" xml:space="preserve">
<g id="Layer_2">
</g>
<g id="Layer_1_1_">
	<g>
		<path fill="#EB2026" d="M300.414,317.455c0,0,5.399,33.6,4.92,38.04c-0.48,4.439-3.601,15.481-5.4,21
			c-1.8,5.52-5.161,14.04-5.041,19.439c0.121,5.4,2.762,9.361,9.961,9.361c7.2,0,10.56-2.279,10.68-8.88
			c0.121-6.6-3.119-14.04-3.119-23.76v-29.881l1.08,1.44c0,0,2.759,20.4,4.92,26.521c2.159,6.12,6.479,13.32,10.439,19.56
			c3.96,6.24,10.199,15.959,10.199,24c0,8.039-6.601,15.119-11.521,21c-4.92,5.879-15.479,16.68-21.239,16.68
			c-5.761,0-12.84-6.6-19.8-13.438s-14.88-12.361-14.88-21.961c0-9.599,4.319-17.64,11.759-32.16
			c7.439-14.521,15.84-31.56,15.84-38.521C299.213,338.935,300.414,317.455,300.414,317.455"/>
		<path fill="#FFFFFF" d="M428.383,396h1C429.382,464.143,374.144,519.383,306,519.383c-68.143-0.002-123.382-55.24-123.383-123.382
			c0.001-68.144,55.24-123.382,123.383-123.383c68.144,0.001,123.382,55.239,123.383,123.383L428.383,396l-1,0.001
			c-0.001-33.522-13.585-63.862-35.552-85.831c-21.97-21.968-52.309-35.552-85.831-35.552c-33.522,0-63.861,13.584-85.83,35.552
			c-21.968,21.969-35.552,52.309-35.553,85.831c0.001,33.523,13.585,63.861,35.553,85.83c21.969,21.969,52.308,35.553,85.83,35.553
			c33.521,0,63.861-13.584,85.831-35.553c21.967-21.969,35.551-52.307,35.552-85.83L428.383,396L428.383,396z"/>
		<path fill="#FFFFFF" d="M203.263,405.279c2.28-0.076,3.985-0.619,5.116-1.629c1.131-1.011,1.664-2.464,1.601-4.363
			c-0.064-1.896-0.693-3.307-1.89-4.238c-1.196-0.932-2.935-1.358-5.214-1.282l-10.916,0.368l0.068,2.044l10.623-0.357
			c1.874-0.063,3.232,0.184,4.076,0.74c0.844,0.558,1.287,1.487,1.331,2.79c0.044,1.31-0.336,2.271-1.141,2.882
			c-0.804,0.612-2.143,0.948-4.017,1.014l-10.623,0.356l0.069,2.046L203.263,405.279z"/>
		<polygon fill="#FFFFFF" points="209.595,390.091 209.829,388.13 195.296,386.393 210.621,381.505 210.946,378.784 
			193.573,376.708 193.339,378.668 207.872,380.406 192.548,385.293 192.223,388.015 		"/>
		
			<rect x="202.489" y="363.483" transform="matrix(0.2254 -0.9743 0.9743 0.2254 -205.0164 486.6004)" fill="#FFFFFF" width="2.036" height="17.498"/>
		<polygon fill="#FFFFFF" points="215.094,363.774 200.385,352.7 199.702,354.704 212.103,363.979 196.622,363.737 195.936,365.749 
			214.35,365.958 		"/>
		<polygon fill="#FFFFFF" points="217.813,356.707 222.174,348.047 220.395,347.152 216.949,353.993 211.287,351.141 
			214.51,344.741 212.73,343.845 209.508,350.245 204.882,347.916 208.245,341.237 206.466,340.34 202.187,348.837 		"/>
		<path fill="#FFFFFF" d="M213.529,332.848c0.558-0.808,1.193-1.269,1.905-1.385c0.712-0.116,1.488,0.116,2.33,0.698
			c0.843,0.582,1.338,1.229,1.487,1.94c0.148,0.711-0.056,1.471-0.613,2.277l-1.456,2.105l-5.108-3.531L213.529,332.848z
			 M220.866,332.498c-0.348-0.774-0.975-1.476-1.881-2.102c-1.388-0.96-2.666-1.329-3.835-1.108
			c-1.169,0.222-2.243,1.039-3.221,2.454l-2.613,3.78l14.392,9.949l1.158-1.675l-6.083-4.205l1.261-1.823
			c0.459-0.664,0.978-1.078,1.559-1.245c0.58-0.166,1.494-0.12,2.74,0.137l4.787,0.969l1.243-1.799l-5.107-1.02
			c-1.047-0.217-1.919-0.315-2.616-0.296c-0.698,0.021-1.242,0.161-1.632,0.423C221.264,334.086,221.214,333.273,220.866,332.498z"
			/>
		<path fill="#FFFFFF" d="M223.509,317.276c-0.604,0.439-1.146,0.919-1.623,1.438c-1.112,1.213-1.658,2.466-1.636,3.759
			c0.022,1.292,0.604,2.462,1.743,3.508c0.984,0.903,1.982,1.358,2.993,1.365c1.012,0.008,2.16-0.43,3.446-1.311l1.045-0.723
			c0.878-0.599,1.649-0.901,2.313-0.908c0.664-0.007,1.313,0.281,1.945,0.861c0.726,0.666,1.07,1.411,1.034,2.235
			c-0.035,0.825-0.446,1.665-1.232,2.521c-0.518,0.564-1.146,1.046-1.883,1.445c-0.737,0.399-1.584,0.721-2.54,0.966l1.796,1.647
			c0.852-0.385,1.618-0.81,2.299-1.274c0.682-0.465,1.263-0.96,1.744-1.484c1.276-1.391,1.923-2.742,1.939-4.055
			c0.017-1.312-0.6-2.541-1.849-3.688c-1.048-0.961-2.128-1.462-3.241-1.503c-1.112-0.041-2.307,0.384-3.58,1.275l-1.048,0.708
			c-0.933,0.658-1.679,1.001-2.24,1.028c-0.561,0.028-1.126-0.22-1.696-0.742c-0.679-0.624-0.999-1.326-0.961-2.107
			c0.038-0.78,0.432-1.58,1.182-2.396c0.432-0.471,0.956-0.887,1.575-1.249c0.619-0.362,1.348-0.683,2.187-0.961l-1.7-1.562
			C224.783,316.436,224.113,316.837,223.509,317.276z"/>
		
			<rect x="234.632" y="309.07" transform="matrix(0.7432 -0.6691 0.6691 0.7432 -152.1292 239.2895)" fill="#FFFFFF" width="2.036" height="17.496"/>
		<polygon fill="#FFFFFF" points="234.076,310.011 238.359,306.82 247.623,319.251 249.264,318.029 240,305.597 244.282,302.406 
			243.092,300.808 232.886,308.414 		"/>
		<polygon fill="#FFFFFF" points="253.721,305.206 257.813,312.462 259.596,311.458 255.502,304.201 255.636,293.604 
			253.73,294.678 253.657,302.981 246.488,298.763 244.584,299.837 		"/>
		<path fill="#FFFFFF" d="M267.834,290.805c-0.719,1.947-0.666,4.241,0.157,6.881c0.824,2.641,2.085,4.555,3.783,5.743
			c1.697,1.189,3.557,1.469,5.576,0.838c2.015-0.629,3.379-1.916,4.095-3.862c0.716-1.946,0.663-4.235-0.158-6.868
			c-0.824-2.64-2.084-4.557-3.779-5.75c-1.696-1.193-3.551-1.477-5.564-0.848C269.923,287.57,268.553,288.859,267.834,290.805z
			 M276.441,289.562c1.205,0.966,2.138,2.504,2.796,4.614c0.657,2.104,0.764,3.896,0.321,5.375c-0.442,1.48-1.369,2.44-2.78,2.881
			c-1.411,0.441-2.723,0.179-3.935-0.785c-1.213-0.964-2.146-2.497-2.803-4.601c-0.659-2.11-0.764-3.906-0.315-5.389
			c0.449-1.482,1.379-2.443,2.79-2.884C273.926,288.332,275.235,288.596,276.441,289.562z"/>
		<polygon fill="#FFFFFF" points="286.69,301.437 288.7,301.114 287.372,292.865 293.263,291.916 292.945,289.949 287.055,290.898 
			286.235,285.807 292.763,284.755 292.445,282.789 283.908,284.164 		"/>
		<polygon fill="#FFFFFF" points="302.563,283.954 307.903,284.09 307.505,299.589 309.55,299.642 309.948,284.143 315.288,284.281 
			315.34,282.29 302.615,281.961 		"/>
		<polygon fill="#FFFFFF" points="316.522,299.981 318.53,300.32 319.918,292.104 327.212,293.335 325.824,301.551 327.831,301.891 
			330.745,284.639 328.738,284.3 327.544,291.372 320.25,290.139 321.444,283.068 319.438,282.729 		"/>
		<polygon fill="#FFFFFF" points="331.383,302.849 340.608,305.83 341.221,303.933 333.933,301.58 335.881,295.546 342.699,297.749 
			343.313,295.853 336.493,293.651 338.085,288.721 345.201,291.02 345.813,289.124 336.76,286.201 		"/>
		<path fill="#FFFFFF" d="M348.989,309.571l1.78,0.987l3.407-6.15l2.239,1.24c1.476,0.817,2.805,1.049,3.987,0.695
			c1.184-0.354,2.192-1.285,3.029-2.796c0.829-1.497,1.081-2.842,0.756-4.036c-0.325-1.193-1.227-2.199-2.7-3.017l-4.021-2.228
			L348.989,309.571z M360.546,298.196c0.829,0.459,1.331,1.063,1.508,1.813c0.177,0.749,0.011,1.582-0.497,2.498
			c-0.512,0.922-1.132,1.508-1.859,1.756c-0.729,0.248-1.508,0.143-2.336-0.316l-2.239-1.241l3.187-5.75L360.546,298.196z"/>
		<polygon fill="#FFFFFF" points="359.488,315.564 361.113,316.792 366.135,310.143 372.037,314.602 367.016,321.25 368.64,322.477 
			379.186,308.517 377.563,307.29 373.238,313.012 367.336,308.553 371.659,302.832 370.034,301.604 		"/>
		
			<rect x="376.981" y="310.628" transform="matrix(0.7286 0.6849 -0.6849 0.7286 321.3466 -172.2278)" fill="#FFFFFF" width="2.036" height="17.497"/>
		<polygon fill="#FFFFFF" points="375.421,328.986 381.66,335.966 383.146,334.638 378.263,329.176 389.82,318.842 388.464,317.325 
					"/>
		
			<rect x="389.198" y="324.291" transform="matrix(0.5995 0.8004 -0.8004 0.5995 422.8615 -178.9351)" fill="#FFFFFF" width="2.036" height="17.497"/>
		<path fill="#FFFFFF" d="M386.036,342.055l1.064,1.734l5.992-3.678l1.339,2.182c0.883,1.438,1.927,2.293,3.131,2.566
			c1.202,0.274,2.54-0.04,4.013-0.943c1.458-0.895,2.339-1.942,2.644-3.142c0.305-1.2,0.016-2.519-0.867-3.956l-2.403-3.916
			L386.036,342.055z M401.693,337.836c0.496,0.808,0.636,1.581,0.421,2.32c-0.216,0.739-0.771,1.383-1.662,1.931
			c-0.898,0.552-1.728,0.756-2.483,0.613c-0.756-0.143-1.383-0.617-1.878-1.425l-1.339-2.182l5.604-3.439L401.693,337.836z"/>
		<path fill="#FFFFFF" d="M392.161,352.479l0.839,1.854l6.406-2.897l1.056,2.332c0.694,1.537,1.622,2.517,2.782,2.939
			s2.525,0.278,4.1-0.434c1.561-0.705,2.564-1.634,3.018-2.786c0.452-1.151,0.331-2.496-0.364-4.032l-1.895-4.188L392.161,352.479z
			 M408.224,350.257c0.392,0.862,0.434,1.647,0.126,2.354c-0.307,0.706-0.937,1.275-1.891,1.706
			c-0.961,0.435-1.808,0.534-2.54,0.298c-0.733-0.236-1.295-0.786-1.686-1.649l-1.056-2.332l5.99-2.71L408.224,350.257z"/>
		
			<rect x="404.445" y="352.963" transform="matrix(0.3257 0.9455 -0.9455 0.3257 615.387 -139.4551)" fill="#FFFFFF" width="2.036" height="17.497"/>
		<polygon fill="#FFFFFF" points="398.762,369 399.199,370.926 413.473,367.684 400.678,377.432 401.285,380.106 418.346,376.23 
			417.908,374.304 403.636,377.546 416.431,367.798 415.824,365.125 		"/>
		<polygon fill="#FFFFFF" points="401.754,383.777 402.522,393.441 404.508,393.284 403.901,385.648 410.222,385.146 
			410.789,392.29 412.774,392.131 412.207,384.989 417.371,384.578 417.963,392.033 419.949,391.875 419.195,382.391 		"/>
		<path fill="#FFFFFF" d="M419.746,404.074c0.185-0.726,0.295-1.439,0.331-2.144c0.083-1.645-0.297-2.957-1.14-3.938
			c-0.843-0.982-2.035-1.511-3.58-1.589c-1.334-0.067-2.394,0.219-3.177,0.858c-0.782,0.642-1.389,1.709-1.815,3.209l-0.344,1.224
			c-0.295,1.021-0.694,1.746-1.201,2.176c-0.507,0.428-1.189,0.621-2.047,0.576c-0.983-0.049-1.726-0.402-2.225-1.062
			c-0.498-0.655-0.719-1.565-0.66-2.727c0.039-0.767,0.215-1.537,0.528-2.314c0.313-0.778,0.76-1.566,1.339-2.365l-2.434-0.123
			c-0.41,0.841-0.729,1.658-0.957,2.449c-0.229,0.793-0.359,1.546-0.396,2.257c-0.096,1.887,0.271,3.34,1.095,4.358
			c0.824,1.021,2.084,1.574,3.776,1.658c1.42,0.072,2.571-0.23,3.454-0.91c0.883-0.678,1.53-1.768,1.942-3.268l0.354-1.213
			c0.299-1.103,0.654-1.843,1.069-2.222c0.414-0.379,1.007-0.551,1.779-0.512c0.921,0.047,1.614,0.383,2.085,1.01
			c0.469,0.625,0.676,1.492,0.618,2.601c-0.031,0.637-0.171,1.293-0.416,1.967c-0.244,0.674-0.602,1.385-1.068,2.135l2.306,0.117
			C419.301,405.535,419.561,404.797,419.746,404.074z"/>
		<path fill="#FFFFFF" d="M216.106,431.697c-0.138-0.804-0.339-1.564-0.605-2.289c-0.622-1.688-1.527-2.859-2.717-3.515
			c-1.19-0.651-2.511-0.713-3.962-0.178c-1.254,0.461-2.104,1.17-2.553,2.125c-0.447,0.955-0.55,2.271-0.306,3.951l0.204,1.367
			c0.163,1.146,0.104,2.035-0.18,2.668c-0.284,0.631-0.828,1.096-1.635,1.393c-0.924,0.34-1.755,0.279-2.491-0.186
			c-0.737-0.465-1.325-1.293-1.764-2.484c-0.29-0.787-0.456-1.633-0.498-2.541c-0.043-0.908,0.032-1.879,0.227-2.912l-2.288,0.843
			c-0.02,1.01,0.034,1.957,0.161,2.846c0.128,0.889,0.325,1.699,0.595,2.43c0.713,1.937,1.664,3.254,2.854,3.955
			c1.19,0.699,2.581,0.758,4.172,0.172c1.334-0.492,2.263-1.254,2.785-2.287c0.523-1.032,0.655-2.387,0.397-4.061l-0.189-1.363
			c-0.194-1.227-0.182-2.115,0.038-2.66c0.219-0.547,0.692-0.953,1.418-1.221c0.865-0.318,1.646-0.256,2.342,0.188
			c0.696,0.445,1.254,1.236,1.673,2.373c0.24,0.654,0.392,1.369,0.452,2.146c0.061,0.777,0.035,1.635-0.076,2.576l2.167-0.797
			C216.317,433.346,216.243,432.5,216.106,431.697z"/>
		
			<rect x="209.605" y="432.6" transform="matrix(0.4305 0.9026 -0.9026 0.4305 518.3778 61.1691)" fill="#FFFFFF" width="2.226" height="17.498"/>
		<polygon fill="#FFFFFF" points="205.265,450.102 210.433,458.934 212.152,457.928 208.107,451.016 221.489,443.186 
			220.365,441.266 		"/>
		<path fill="#FFFFFF" d="M210.832,459.684l1.433,1.857l4.47-1.551l4.523,5.873l-2.642,3.926l1.412,1.832l10.036-15.644l-1.54-1.997
			L210.832,459.684z M222.395,464.111l-3.69-4.791l8.739-2.922L222.395,464.111z"/>
		<polygon fill="#FFFFFF" points="221.736,473.328 223.314,474.898 229.258,468.926 228.912,480.469 230.989,482.537 
			231.378,469.746 242.917,469.723 240.887,467.703 230.439,467.738 235.655,462.496 234.078,460.928 		"/>
		
			<rect x="233.381" y="477.164" transform="matrix(0.7625 0.647 -0.647 0.7625 365.4663 -39.3628)" fill="#FFFFFF" width="5.938" height="1.921"/>
		<path fill="#FFFFFF" d="M253.043,476.916c-0.574-0.578-1.178-1.088-1.812-1.527c-1.479-1.022-2.893-1.463-4.242-1.313
			c-1.349,0.147-2.464,0.856-3.345,2.129c-0.762,1.098-1.051,2.166-0.868,3.205s0.855,2.176,2.02,3.41l0.954,1.004
			c0.791,0.842,1.253,1.604,1.385,2.285c0.131,0.68-0.048,1.373-0.537,2.08c-0.561,0.809-1.276,1.233-2.146,1.278
			c-0.87,0.043-1.827-0.297-2.871-1.021c-0.688-0.478-1.311-1.074-1.867-1.793c-0.557-0.718-1.052-1.556-1.487-2.515l-1.389,2.004
			c0.563,0.839,1.152,1.584,1.768,2.236c0.614,0.654,1.241,1.203,1.881,1.646c1.696,1.176,3.232,1.707,4.609,1.598
			c1.377-0.111,2.548-0.863,3.514-2.256c0.81-1.17,1.131-2.326,0.966-3.474c-0.167-1.146-0.836-2.33-2.009-3.553l-0.938-1.006
			c-0.864-0.893-1.364-1.627-1.498-2.199c-0.135-0.574,0.019-1.178,0.459-1.813c0.525-0.759,1.2-1.154,2.025-1.191
			c0.824-0.037,1.735,0.291,2.731,0.98c0.573,0.397,1.107,0.896,1.604,1.495c0.495,0.601,0.968,1.316,1.417,2.152l1.315-1.897
			C254.162,478.143,253.616,477.492,253.043,476.916z"/>
		
			<rect x="253.104" y="479.19" transform="matrix(0.8704 0.4923 -0.4923 0.8704 273.1262 -61.9278)" fill="#FFFFFF" width="2.226" height="17.496"/>
		<polygon fill="#FFFFFF" points="254.749,498.221 264.052,502.484 264.882,500.672 257.602,497.336 264.062,483.242 
			262.039,482.314 		"/>
		<path fill="#FFFFFF" d="M264.784,502.859l2.24,0.696l2.765-3.84l7.078,2.205l0.096,4.73l2.209,0.688l-0.781-18.567l-2.408-0.75
			L264.784,502.859z M276.79,499.836l-5.773-1.799l5.471-7.416L276.79,499.836z"/>
		<path fill="#FFFFFF" d="M281.561,507.768l5.823,0.976c1.817,0.305,3.289,0.119,4.415-0.558c1.126-0.674,1.817-1.782,2.075-3.323
			c0.196-1.17,0.061-2.197-0.406-3.08c-0.467-0.881-1.219-1.535-2.257-1.963c0.924-0.004,1.67-0.279,2.237-0.826
			c0.568-0.547,0.94-1.349,1.117-2.402c0.229-1.365-0.049-2.492-0.83-3.383c-0.782-0.893-2.009-1.477-3.683-1.758l-5.605-0.938
			L281.561,507.768z M289.569,493.342c1.071,0.178,1.834,0.527,2.287,1.047c0.453,0.521,0.606,1.215,0.461,2.086
			c-0.146,0.879-0.519,1.486-1.115,1.826c-0.596,0.34-1.432,0.42-2.503,0.242l-3.249-0.545l0.87-5.201L289.569,493.342z
			 M288.653,500.482c1.181,0.198,2.013,0.602,2.495,1.209c0.483,0.606,0.635,1.448,0.454,2.528c-0.18,1.07-0.597,1.818-1.252,2.244
			c-0.656,0.424-1.574,0.539-2.755,0.34l-3.52-0.588l1.058-6.322L288.653,500.482z"/>
		<polygon fill="#FFFFFF" points="304.056,510.313 306.28,510.268 306.113,501.914 312.634,501.783 312.594,499.793 
			306.074,499.922 305.971,494.768 313.195,494.623 313.155,492.631 303.706,492.82 		"/>
		<path fill="#FFFFFF" d="M315.803,494.582c-1.115,1.838-1.463,4.123-1.04,6.855c0.423,2.731,1.444,4.805,3.063,6.215
			c1.619,1.407,3.571,1.938,5.856,1.582c2.278-0.353,3.976-1.447,5.087-3.283c1.113-1.836,1.459-4.117,1.037-6.842
			c-0.424-2.734-1.442-4.808-3.059-6.222s-3.563-1.944-5.843-1.592C318.62,491.65,316.919,492.746,315.803,494.582z
			 M325.288,494.508c1.129,1.121,1.862,2.775,2.2,4.959c0.337,2.178,0.138,3.974-0.6,5.383c-0.736,1.41-1.902,2.238-3.5,2.486
			c-1.597,0.248-2.963-0.188-4.099-1.311s-1.872-2.771-2.209-4.947c-0.339-2.185-0.136-3.982,0.606-5.396
			c0.744-1.411,1.914-2.239,3.512-2.487C322.797,492.949,324.16,493.387,325.288,494.508z"/>
		<path fill="#FFFFFF" d="M332.333,500.627c0.685,2.176,1.707,3.66,3.068,4.451c1.361,0.793,3.033,0.877,5.017,0.254
			c1.976-0.621,3.295-1.646,3.958-3.074c0.663-1.43,0.652-3.231-0.031-5.408l-3.275-10.42l-2.134,0.672l3.188,10.14
			c0.563,1.789,0.663,3.172,0.301,4.149c-0.362,0.979-1.224,1.681-2.582,2.107c-1.366,0.43-2.478,0.348-3.335-0.248
			c-0.855-0.594-1.564-1.785-2.128-3.574l-3.188-10.139l-2.134,0.67L332.333,500.627z"/>
		<polygon fill="#FFFFFF" points="350.206,501.568 352.148,500.625 345.76,487.457 358.71,497.443 361.405,496.135 353.769,480.395 
			351.826,481.336 358.215,494.506 345.266,484.52 342.569,485.826 		"/>
		<path fill="#FFFFFF" d="M365.255,493.918l3.77-2.588c2.615-1.795,4.141-3.699,4.574-5.713c0.435-2.015-0.2-4.265-1.907-6.75
			c-1.698-2.474-3.562-3.869-5.588-4.188c-2.026-0.317-4.354,0.424-6.981,2.228l-3.769,2.588L365.255,493.918z M360.504,478.316
			c1.87-1.283,3.549-1.775,5.034-1.474s2.892,1.42,4.218,3.353c1.336,1.944,1.879,3.666,1.629,5.164s-1.31,2.891-3.181,4.174
			l-2.216,1.521l-7.7-11.217L360.504,478.316z"/>
		<path fill="#FFFFFF" d="M377.542,485.402l1.731-1.584l-1.926-4.322l5.471-5.006l4.135,2.301l1.707-1.563l-16.437-8.676
			l-1.86,1.703L377.542,485.402z M380.977,473.508l-4.461,4.082l-3.65-8.461L380.977,473.508z"/>
		<polygon fill="#FFFFFF" points="375.828,466.164 379.669,461.768 391.346,471.967 392.817,470.283 381.141,460.084 
			384.98,455.686 383.48,454.375 374.328,464.854 		"/>
		
			<rect x="390.244" y="449.243" transform="matrix(0.5883 -0.8087 0.8087 0.5883 -209.2286 505.0399)" fill="#FFFFFF" width="2.224" height="17.497"/>
		<path fill="#FFFFFF" d="M389.03,450.051c0.734,2.021,2.301,3.722,4.697,5.101s4.651,1.879,6.765,1.496
			c2.111-0.382,3.746-1.574,4.898-3.578c1.15-2,1.357-4.007,0.62-6.023c-0.735-2.018-2.3-3.713-4.688-5.09
			c-2.397-1.379-4.653-1.881-6.768-1.504c-2.113,0.377-3.746,1.563-4.896,3.563C388.505,446.018,388.296,448.031,389.03,450.051z
			 M394.905,442.604c1.581-0.18,3.33,0.283,5.246,1.388c1.908,1.098,3.185,2.377,3.823,3.832c0.641,1.459,0.558,2.887-0.249,4.287
			c-0.807,1.399-2.002,2.192-3.587,2.377c-1.585,0.186-3.332-0.271-5.24-1.369c-1.916-1.104-3.192-2.387-3.828-3.851
			c-0.638-1.463-0.553-2.895,0.254-4.295S393.324,442.781,394.905,442.604z"/>
		<polygon fill="#FFFFFF" points="410.314,443.088 411.095,441.074 397.447,435.783 413.73,434.275 414.813,431.48 398.5,425.156 
			397.72,427.17 411.367,432.461 395.084,433.969 394.001,436.764 		"/>
		<path fill="#FFFFFF" d="M395.18,396h1c-0.001,49.804-40.374,90.179-90.18,90.179c-49.806,0-90.178-40.374-90.179-90.179
			c0.001-49.806,40.373-90.18,90.179-90.18c49.806,0,90.179,40.374,90.18,90.18H395.18h-1c-0.001-24.354-9.868-46.393-25.827-62.353
			C352.392,317.688,330.354,307.82,306,307.82c-24.354,0-46.392,9.868-62.352,25.827c-15.959,15.96-25.826,37.999-25.827,62.353
			c0.001,24.353,9.868,46.392,25.827,62.351c15.96,15.959,37.998,25.828,62.352,25.828c24.354,0,46.392-9.869,62.353-25.828
			c15.96-15.959,25.826-37.997,25.827-62.351H395.18z"/>
	</g>
</g>
</svg>
